PathFileType        4      (X/Y/Z)      C:\Users\pc\Desktop\IMUTRC\Sujet_06\Sujet_06_Tpose.trc         
DataRate	CameraRate	NumFrames	NumMarkers	Units	OrigDataRate	OrigDataStartFrame	OrigNumFrames
60.0	60.0	4	64	mm	60.0	80	127
Frame#	Time	pHipOrigin			pRightASI			pLeftASI			pRightCSI			pLeftCSI			pRightIschialTub			pLeftIschialTub			pSacrum			pL5SpinalProcess			pL3SpinalProcess			pT12SpinalProcess			pIJ			pT4SpinalProcess			pT8SpinalProcess			pPX			pC7SpinalProcess			pTopOfHead			pRightAuricularis			pLeftAuricularis			pBackOfHead			pRightAcromion			pLeftAcromion			pRightArmLatEpicondyle			pRightArmMedEpicondyle			pLeftArmLatEpicondyle			pLeftArmMedEpicondyle			pRightUlnarStyloid			pRightRadialStyloid			pRightOlecranon			pLeftUlnarStyloid			pLeftRadialStyloid			pLeftOlecranon			pRightTopOfHand			pRightPinky			pRightBallHand			pLeftTopOfHand			pLeftPinky			pLeftBallHand			pRightGreaterTrochanter			pRightKneeLatEpicondyle			pRightKneeMedEpicondyle			pRightPatella			pLeftGreaterTrochanter			pLeftKneeLatEpicondyle			pLeftKneeMedEpicondyle			pLeftPatella			pRightTibialTub			pRightLatMalleolus			pRightMedMalleolus			pLeftTibialTub			pLeftLatMalleolus			pLeftMedMalleolus			pRightHeelFoot			pRightFirstMetatarsal			pRightFifthMetatarsal			pRightPivotFoot			pRightHeelCenter			pRightToe			pLeftHeelFoot			pLeftFirstMetatarsal			pLeftFifthMetatarsal			pLeftPivotFoot			pLeftHeelCenter			pLeftToe			
		X1	Y1	Z1	X2	Y2	Z2	X3	Y3	Z3	X4	Y4	Z4	X5	Y5	Z5	X6	Y6	Z6	X7	Y7	Z7	X8	Y8	Z8	X9	Y9	Z9	X10	Y10	Z10	X11	Y11	Z11	X12	Y12	Z12	X13	Y13	Z13	X14	Y14	Z14	X15	Y15	Z15	X16	Y16	Z16	X17	Y17	Z17	X18	Y18	Z18	X19	Y19	Z19	X20	Y20	Z20	X21	Y21	Z21	X22	Y22	Z22	X23	Y23	Z23	X24	Y24	Z24	X25	Y25	Z25	X26	Y26	Z26	X27	Y27	Z27	X28	Y28	Z28	X29	Y29	Z29	X30	Y30	Z30	X31	Y31	Z31	X32	Y32	Z32	X33	Y33	Z33	X34	Y34	Z34	X35	Y35	Z35	X36	Y36	Z36	X37	Y37	Z37	X38	Y38	Z38	X39	Y39	Z39	X40	Y40	Z40	X41	Y41	Z41	X42	Y42	Z42	X43	Y43	Z43	X44	Y44	Z44	X45	Y45	Z45	X46	Y46	Z46	X47	Y47	Z47	X48	Y48	Z48	X49	Y49	Z49	X50	Y50	Z50	X51	Y51	Z51	X52	Y52	Z52	X53	Y53	Z53	X54	Y54	Z54	X55	Y55	Z55	X56	Y56	Z56	X57	Y57	Z57	X58	Y58	Z58	X59	Y59	Z59	X60	Y60	Z60	X61	Y61	Z61	X62	Y62	Z62	X63	Y63	Z63	X64	Y64	Z64	
80	1.317	1139.29425	894.4426500000001	-1012.45103	1209.45674	981.07009	-904.0806699999999	1181.97691	982.9059100000001	-1132.98364	1167.69199	1038.84084	-916.8166299999999	1144.51484	1040.33244	-1109.8065	1097.75897	843.6135700000001	-958.86823	1086.11303	844.3593700000001	-1055.36316	1081.12192	911.8255100000001	-1005.27988	1106.8233	994.2076300000001	-1006.9435899999999	1110.03598	1109.11807	-1006.4846299999999	1099.53742	1213.47258	-1004.1898699999999	1227.12644	1447.25193	-1026.79332	1081.00718	1408.58511	-1000.8050899999998	1085.94093	1317.59762	-1001.6082499999999	1238.94449	1323.33453	-1028.74387	1078.88452	1464.979	-999.6003299999999	1117.37923	1735.8762	-989.6180999999999	1145.49012	1626.64531	-931.1589199999999	1108.65912	1638.40599	-1070.62336	1072.34443	1625.84214	-986.9791199999999	1138.72056	1455.34098	-828.3533799999999	1063.8538	1456.20152	-1179.10845	1186.33697	1403.99558	-557.3988099999999	1244.05035	1384.77691	-573.9784999999999	969.88311	1368.4267	-1435.37651	1025.99015	1341.29108	-1444.95716	1261.49057	1338.07841	-319.14466999999996	1239.2887	1384.20322	-309.85085999999995	1223.45482	1372.49991	-573.2326999999999	909.41601	1280.25029	-1669.78692	881.87881	1324.36718	-1667.779	1010.90206	1334.57889	-1437.49917	1295.28101	1351.6749	-153.2330399999999	1305.03377	1333.37414	-232.2303799999999	1278.47184	1356.03496	-292.35326999999995	879.29719	1277.49657	-1833.86273	911.59603	1259.88424	-1761.00389	912.91552	1290.06042	-1698.35676	1153.46443	862.66014	-865.41386	1113.47813	485.28577000000007	-878.32192	1107.16752	482.70416000000006	-951.81182	1151.28441	482.5894200000001	-921.00458	1117.60871	862.0290800000001	-1157.65238	1089.21097	484.71208000000007	-1126.15671	1101.77482	484.0810200000001	-1053.46998	1136.65527	483.62206000000003	-1094.48893	1161.84033	450.29058000000003	-920.71773	1096.0379	85.99638000000006	-872.24079	1091.04678	83.81635000000006	-931.10155	1146.4654	450.23321000000004	-1096.61159	1067.29595	85.93901000000007	-1117.66607	1077.39292	85.19321000000006	-1059.43637	1060.52639	-0.05736999999994462	-904.36752	1212.4973	12.73595000000006	-957.54874	1220.75846	7.113780000000054	-881.82144	1238.02658	11.244360000000057	-922.95513	1097.58687	4.187950000000056	-908.15388	1313.63914	15.948630000000056	-930.87207	1041.88141	0.05737000000006611	-1079.74506	1202.85929	11.932790000000066	-1084.10511	1183.2964	11.30173000000007	-1157.93923	1214.21838	13.08017000000007	-1125.58302	1077.85187	4.646900000000066	-1089.32571	1287.70828	18.47287000000007	-1145.08854	
81	1.333	1139.46636	894.4426500000001	-1012.5084	1209.62885	981.07009	-904.1380399999999	1182.14902	982.8485400000001	-1133.04101	1167.86409	1038.78347	-916.8739999999999	1144.74432	1040.33244	-1109.86387	1097.87371	843.6135700000001	-958.98296	1086.28514	844.3593700000001	-1055.4779	1081.23666	911.8255100000001	-1005.39462	1107.05278	994.1502600000001	-1007.0583199999999	1110.20808	1109.11807	-1006.5993699999999	1099.7669	1213.47258	-1004.3045999999999	1227.29855	1447.25193	-1026.90806	1081.17929	1408.58511	-1000.9198199999998	1086.11303	1317.59762	-1001.7229899999999	1239.17397	1323.33453	-1028.85861	1079.114	1464.979	-999.7150699999999	1117.60871	1735.8762	-989.7328399999999	1145.66223	1626.64531	-931.2736599999998	1108.88859	1638.40599	-1070.7381	1072.57391	1625.84214	-987.1512199999999	1138.95004	1455.28361	-828.4681099999999	1064.02591	1456.20152	-1179.22319	1186.50907	1403.93821	-557.5135499999999	1244.16508	1384.66217	-574.0358699999999	970.05521	1368.36933	-1435.49125	1026.10489	1341.23371	-1445.0719	1261.54794	1338.02104	-319.2020299999999	1239.40344	1384.14585	-309.90822999999995	1223.62692	1372.44254	-573.3474399999999	909.47337	1280.19292	-1669.84429	881.93618	1324.30981	-1667.83637	1011.0168	1334.57889	-1437.61391	1295.28101	1351.56016	-153.29040999999992	1305.03377	1333.2594	-232.2877499999999	1278.47184	1355.97759	-292.41062999999997	879.35456	1277.32446	-1833.9201	911.6534	1259.7695	-1761.00389	913.03026	1289.94568	-1698.41413	1153.5218	862.66014	-865.47123	1113.47813	485.28577000000007	-878.32192	1107.22489	482.70416000000006	-951.81182	1151.34177	482.5894200000001	-921.00458	1117.78081	861.9717100000001	-1157.76712	1089.21097	484.71208000000007	-1126.21408	1101.83219	484.0810200000001	-1053.52735	1136.65527	483.56469000000004	-1094.48893	1161.84033	450.23321000000004	-920.71773	1096.0379	85.99638000000006	-872.24079	1091.04678	83.87372000000006	-931.10155	1146.4654	450.17584000000005	-1096.66896	1067.35332	85.93901000000007	-1117.66607	1077.39292	85.19321000000006	-1059.43637	1060.52639	-0.05736999999994462	-904.36752	1212.4973	12.73595000000006	-957.54874	1220.75846	7.113780000000054	-881.82144	1238.02658	11.301730000000056	-922.95513	1097.58687	4.187950000000056	-908.15388	1313.63914	15.948630000000056	-930.87207	1041.88141	0.05737000000006611	-1079.74506	1202.85929	11.932790000000066	-1083.99037	1183.35377	11.30173000000007	-1157.82449	1214.27575	13.08017000000007	-1125.46828	1077.85187	4.646900000000066	-1089.32571	1287.70828	18.47287000000007	-1144.91643	
82	1.35	1139.63847	894.4426500000001	-1012.62313	1209.74358	981.01272	-904.2527799999999	1182.37849	982.8485400000001	-1133.15575	1168.0362	1038.78347	-916.9887399999999	1144.9738	1040.33244	-1109.97861	1097.98845	843.6135700000001	-959.0977	1086.45725	844.3593700000001	-1055.59264	1081.40876	911.8255100000001	-1005.50936	1107.22489	994.1502600000001	-1007.1730599999999	1110.38019	1109.11807	-1006.7141099999999	1099.939	1213.47258	-1004.4193399999999	1227.52803	1447.25193	-1027.02279	1081.35139	1408.58511	-1001.0919299999999	1086.34251	1317.59762	-1001.8377299999999	1239.34607	1323.33453	-1028.91598	1079.2861	1464.979	-999.8298099999998	1117.83818	1735.81883	-989.9049399999999	1145.83433	1626.64531	-931.3883999999999	1109.11807	1638.40599	-1070.85284	1072.74602	1625.84214	-987.2659599999998	1139.12214	1455.28361	-828.5828499999999	1064.19801	1456.14415	-1179.33793	1186.62381	1403.93821	-557.6282799999999	1244.33719	1384.6048	-574.1505999999999	970.16995	1368.31196	-1435.60599	1026.27699	1341.23371	-1445.18664	1261.60531	1337.96367	-319.31676999999996	1239.46081	1384.14585	-310.02296999999993	1223.74166	1372.38517	-573.4621699999999	909.58811	1280.07818	-1669.90166	882.05091	1324.19507	-1667.89374	1011.1889	1334.52152	-1437.72865	1295.28101	1351.44542	-153.4051499999999	1305.03377	1333.20203	-232.40248999999991	1278.58658	1355.92022	-292.52536999999995	879.35456	1277.15235	-1833.97747	911.71077	1259.59739	-1761.06126	913.08763	1289.88831	-1698.4715	1153.63654	862.66014	-865.58596	1113.5355	485.34314000000006	-878.37929	1107.28226	482.70416000000006	-951.86919	1151.34177	482.5894200000001	-921.00458	1117.95292	861.9717100000001	-1157.88186	1089.26834	484.71208000000007	-1126.27145	1101.83219	484.0810200000001	-1053.58472	1136.71264	483.56469000000004	-1094.5463	1161.8977	450.23321000000004	-920.71773	1096.0379	85.99638000000006	-872.24079	1091.04678	83.87372000000006	-931.10155	1146.52276	450.17584000000005	-1096.66896	1067.35332	85.93901000000007	-1117.66607	1077.39292	85.19321000000006	-1059.43637	1060.52639	-0.05736999999994462	-904.36752	1212.4973	12.73595000000006	-957.54874	1220.75846	7.113780000000054	-881.82144	1238.02658	11.301730000000056	-922.95513	1097.58687	4.187950000000056	-908.15388	1313.69651	15.948630000000056	-930.87207	1041.88141	0.05737000000006611	-1079.74506	1202.85929	11.932790000000066	-1083.87564	1183.41114	11.244360000000071	-1157.70975	1214.33312	13.08017000000007	-1125.29617	1077.85187	4.646900000000066	-1089.26834	1287.76565	18.415500000000073	-1144.74432	
83	1.367	1139.7532	894.3852800000001	-1012.73787	1209.91569	981.01272	-904.3101499999999	1182.5506	982.8485400000001	-1133.21312	1168.20831	1038.78347	-917.1034699999999	1145.14591	1040.27507	-1110.09335	1098.10319	843.6135700000001	-959.21244	1086.57199	844.3593700000001	-1055.70738	1081.58087	911.8255100000001	-1005.6241	1107.33963	994.1502600000001	-1007.2877999999998	1110.5523	1109.11807	-1006.8288499999999	1100.11111	1213.47258	-1004.5340799999999	1227.64276	1447.25193	-1027.13753	1081.5235	1408.58511	-1001.2066699999999	1086.51462	1317.59762	-1001.9524699999998	1239.51818	1323.33453	-1029.03071	1079.45821	1464.979	-1000.0019199999999	1118.01029	1735.81883	-990.0196799999999	1146.00644	1626.58794	-931.5031299999999	1109.23281	1638.34862	-1070.96757	1072.91813	1625.84214	-987.3806999999999	1139.23688	1455.28361	-828.6975899999999	1064.37012	1456.14415	-1179.45267	1186.73855	1403.88084	-557.6856499999999	1244.45193	1384.6048	-574.2653399999999	970.34206	1368.25459	-1435.72073	1026.4491	1341.17634	-1445.30138	1261.77742	1337.9063	-319.43150999999995	1239.63292	1384.08848	-310.13770999999997	1223.8564	1372.3278	-573.5769099999999	909.70285	1280.02081	-1670.0164	882.16565	1324.1377	-1668.00848	1011.36101	1334.46415	-1437.84339	1295.45312	1351.38805	-153.51988999999992	1305.20588	1333.14466	-232.51722999999993	1278.70132	1355.86285	-292.64010999999994	879.29719	1276.98025	-1834.03484	911.71077	1259.48265	-1761.176	913.20237	1289.77357	-1698.58624	1153.75128	862.66014	-865.64333	1113.59286	485.34314000000006	-878.43666	1107.33963	482.70416000000006	-951.92656	1151.39914	482.5320500000001	-921.06195	1118.12503	861.9717100000001	-1157.93923	1089.38308	484.71208000000007	-1126.27145	1101.88955	484.0810200000001	-1053.58472	1136.77001	483.56469000000004	-1094.5463	1161.95507	450.23321000000004	-920.7751	1096.0379	85.99638000000006	-872.24079	1091.04678	83.87372000000006	-931.10155	1146.58013	450.17584000000005	-1096.66896	1067.35332	85.93901000000007	-1117.66607	1077.39292	85.19321000000006	-1059.43637	1060.52639	-0.05736999999994462	-904.36752	1212.4973	12.73595000000006	-957.54874	1220.75846	7.113780000000054	-881.82144	1238.02658	11.244360000000057	-922.95513	1097.58687	4.187950000000056	-908.15388	1313.69651	15.948630000000056	-930.87207	1041.88141	0.05737000000006611	-1079.74506	1202.85929	11.932790000000066	-1083.7609	1183.46851	11.244360000000071	-1157.59501	1214.33312	13.08017000000007	-1125.18144	1077.85187	4.646900000000066	-1089.26834	1287.82302	18.415500000000073	-1144.51484	
